<svg width="512" height="512" viewBox="0 0 512 512" fill="none" xmlns="http://www.w3.org/2000/svg">
<g clip-path="url(#clip0_301_488)">
<path d="M453.034 361.323C450.226 360.159 446.994 360.802 444.844 362.951L362.718 445.077C360.569 447.227 359.926 450.459 361.09 453.267C362.252 456.076 364.994 457.906 368.033 457.906H450.159C454.31 457.906 457.674 454.542 457.674 450.391V368.265C457.673 365.226 455.842 362.486 453.034 361.323ZM386.173 442.877L442.642 386.408V442.877H386.173Z" fill="#ffbd39"/>
<mask id="path-2-outside-1_301_488" maskUnits="userSpaceOnUse" x="-1" y="-0.178955" width="514" height="513" fill="#ffbd39">
<rect fill="white" x="-1" y="-0.178955" width="514" height="513"/>
<path d="M507.361 240.868C504.553 239.704 501.321 240.347 499.171 242.496L476.664 265.003V111.972C476.664 107.821 473.299 104.457 469.149 104.457H411.408L432.368 83.497C432.371 83.494 432.374 83.49 432.377 83.487L452.573 63.291C456.9 58.964 459.283 53.208 459.283 47.088C459.283 40.968 456.9 35.214 452.573 30.885L429.219 7.53104C424.892 3.20404 419.136 0.821045 413.016 0.821045C406.896 0.821045 401.141 3.20404 396.813 7.53104L376.607 27.737L352.191 52.153L299.888 104.456H66.62V30.111C66.62 25.96 63.255 22.596 59.105 22.596C26.515 22.598 0 49.111 0 81.703V400.889C0 401.444 0.064 401.984 0.178 402.504C1.216 416.333 7.199 429.182 17.198 438.936C27.886 449.36 41.995 455.101 56.927 455.101H286.565L243.316 498.35C241.167 500.5 240.524 503.731 241.687 506.54C242.85 509.348 245.591 511.179 248.63 511.179H504.485C508.635 511.179 512 507.815 512 503.664V247.811C512 244.772 510.168 242.031 507.361 240.868ZM407.443 18.16C410.515 15.086 415.52 15.086 418.592 18.16L441.947 41.515C445.021 44.588 445.021 49.591 441.947 52.665L427.056 67.557L392.55 33.052L407.443 18.16ZM381.922 43.68L416.427 78.184L402.638 91.973L368.135 57.469L381.922 43.68ZM496.972 332.253H483.107C478.956 332.253 475.592 335.617 475.592 339.768C475.592 343.919 478.956 347.283 483.107 347.283H496.972V369.929H483.107C478.956 369.929 475.592 373.293 475.592 377.444C475.592 381.595 478.956 384.959 483.107 384.959H496.972V407.604H483.107C478.956 407.604 475.592 410.968 475.592 415.119C475.592 419.27 478.956 422.634 483.107 422.634H496.972V445.28H483.107C478.956 445.28 475.592 448.645 475.592 452.795C475.592 456.946 478.956 460.31 483.107 460.31H496.972V496.152H266.772L342.68 420.245C345.615 417.309 345.615 412.552 342.68 409.617C342.343 409.28 341.981 408.988 341.602 408.728C338.676 406.724 334.65 407.019 332.051 409.617L301.595 440.073H56.928C34.136 440.073 15.788 422.279 15.066 399.528C15.109 398.1 15.22 396.684 15.398 395.284C15.399 395.276 15.4 395.268 15.401 395.26C15.485 394.595 15.586 393.933 15.701 393.275C15.714 393.2 15.728 393.125 15.741 393.05C15.846 392.463 15.964 391.879 16.093 391.297C16.129 391.135 16.167 390.973 16.205 390.812C16.319 390.32 16.442 389.831 16.574 389.344C16.646 389.08 16.721 388.819 16.798 388.556C16.908 388.174 17.022 387.793 17.143 387.416C17.264 387.039 17.393 386.666 17.524 386.293C17.615 386.032 17.705 385.771 17.803 385.512C17.986 385.02 18.18 384.533 18.38 384.05C18.437 383.911 18.493 383.77 18.552 383.631C18.809 383.031 19.076 382.438 19.358 381.852C19.37 381.827 19.381 381.802 19.393 381.777C25.271 369.613 36.576 360.544 50.143 357.73C50.181 357.722 50.219 357.713 50.257 357.705C50.879 357.578 51.507 357.469 52.139 357.368C52.244 357.351 52.349 357.33 52.456 357.314C53.027 357.227 53.604 357.159 54.181 357.094C54.343 357.076 54.504 357.051 54.667 357.035C55.224 356.979 55.786 356.942 56.348 356.907C56.526 356.896 56.704 356.877 56.882 356.868C57.618 356.831 58.36 356.812 59.105 356.812C63.255 356.812 66.62 353.448 66.62 349.297V294.808C66.62 290.657 63.255 287.293 59.105 287.293C54.955 287.293 51.59 290.657 51.59 294.808V342.255C38.9 343.86 27.121 349.52 17.833 358.59C16.856 359.544 15.93 360.536 15.028 361.544V81.703C15.028 59.9621 30.854 41.845 51.589 38.267V111.972V264.749V264.75C51.589 268.9 54.954 272.265 59.104 272.265C63.254 272.265 66.619 268.9 66.619 264.75V264.749V119.487H284.859L243.315 161.031C240.38 163.967 240.38 168.724 243.315 171.659C246.25 174.593 251.008 174.593 253.942 171.659L308.315 117.286C308.317 117.284 308.318 117.282 308.32 117.281L357.505 68.096L392.008 102.601L387.96 106.649C387.957 106.652 387.953 106.655 387.95 106.658L236.422 258.188L201.918 223.684L231.786 193.816C234.721 190.88 234.721 186.123 231.786 183.188C228.851 180.254 224.093 180.254 221.159 183.188L185.976 218.37C185.788 218.558 185.612 218.757 185.447 218.961C185.392 219.029 185.343 219.102 185.291 219.173C185.185 219.314 185.081 219.456 184.984 219.604C184.929 219.69 184.879 219.778 184.827 219.867C184.744 220.007 184.664 220.149 184.591 220.294C184.543 220.388 184.5 220.483 184.456 220.581C184.389 220.728 184.327 220.878 184.27 221.028C184.25 221.081 184.224 221.131 184.205 221.184L169.564 262.659L159.582 290.938C159.45 291.314 159.355 291.696 159.284 292.081H134.292C130.142 292.081 126.777 295.445 126.777 299.596C126.777 303.747 130.142 307.111 134.292 307.111H342.406C346.557 307.111 349.921 303.747 349.921 299.596C349.921 295.445 346.557 292.081 342.406 292.081H193.093L238.923 275.903C238.961 275.889 238.997 275.87 239.035 275.856C239.213 275.79 239.388 275.716 239.561 275.637C239.63 275.605 239.699 275.575 239.766 275.542C239.946 275.452 240.123 275.353 240.297 275.247C240.353 275.213 240.411 275.182 240.466 275.147C240.647 275.031 240.823 274.904 240.996 274.77C241.039 274.737 241.084 274.708 241.126 274.674C241.335 274.506 241.54 274.325 241.734 274.131L396.378 119.488H461.633V280.034L354.137 387.531C351.202 390.467 351.202 395.224 354.137 398.159C354.32 398.342 354.511 398.514 354.708 398.675C356.086 399.798 357.769 400.36 359.451 400.36C361.133 400.36 362.817 399.798 364.194 398.675C364.391 398.515 364.582 398.342 364.765 398.159C364.768 398.156 364.765 398.159 364.768 398.156L496.972 265.951V332.253ZM222.677 265.697L201.151 273.296L186.809 258.954L194.408 237.428L222.677 265.697Z"/>
</mask>
<path d="M507.361 240.868C504.553 239.704 501.321 240.347 499.171 242.496L476.664 265.003V111.972C476.664 107.821 473.299 104.457 469.149 104.457H411.408L432.368 83.497C432.371 83.494 432.374 83.49 432.377 83.487L452.573 63.291C456.9 58.964 459.283 53.208 459.283 47.088C459.283 40.968 456.9 35.214 452.573 30.885L429.219 7.53104C424.892 3.20404 419.136 0.821045 413.016 0.821045C406.896 0.821045 401.141 3.20404 396.813 7.53104L376.607 27.737L352.191 52.153L299.888 104.456H66.62V30.111C66.62 25.96 63.255 22.596 59.105 22.596C26.515 22.598 0 49.111 0 81.703V400.889C0 401.444 0.064 401.984 0.178 402.504C1.216 416.333 7.199 429.182 17.198 438.936C27.886 449.36 41.995 455.101 56.927 455.101H286.565L243.316 498.35C241.167 500.5 240.524 503.731 241.687 506.54C242.85 509.348 245.591 511.179 248.63 511.179H504.485C508.635 511.179 512 507.815 512 503.664V247.811C512 244.772 510.168 242.031 507.361 240.868ZM407.443 18.16C410.515 15.086 415.52 15.086 418.592 18.16L441.947 41.515C445.021 44.588 445.021 49.591 441.947 52.665L427.056 67.557L392.55 33.052L407.443 18.16ZM381.922 43.68L416.427 78.184L402.638 91.973L368.135 57.469L381.922 43.68ZM496.972 332.253H483.107C478.956 332.253 475.592 335.617 475.592 339.768C475.592 343.919 478.956 347.283 483.107 347.283H496.972V369.929H483.107C478.956 369.929 475.592 373.293 475.592 377.444C475.592 381.595 478.956 384.959 483.107 384.959H496.972V407.604H483.107C478.956 407.604 475.592 410.968 475.592 415.119C475.592 419.27 478.956 422.634 483.107 422.634H496.972V445.28H483.107C478.956 445.28 475.592 448.645 475.592 452.795C475.592 456.946 478.956 460.31 483.107 460.31H496.972V496.152H266.772L342.68 420.245C345.615 417.309 345.615 412.552 342.68 409.617C342.343 409.28 341.981 408.988 341.602 408.728C338.676 406.724 334.65 407.019 332.051 409.617L301.595 440.073H56.928C34.136 440.073 15.788 422.279 15.066 399.528C15.109 398.1 15.22 396.684 15.398 395.284C15.399 395.276 15.4 395.268 15.401 395.26C15.485 394.595 15.586 393.933 15.701 393.275C15.714 393.2 15.728 393.125 15.741 393.05C15.846 392.463 15.964 391.879 16.093 391.297C16.129 391.135 16.167 390.973 16.205 390.812C16.319 390.32 16.442 389.831 16.574 389.344C16.646 389.08 16.721 388.819 16.798 388.556C16.908 388.174 17.022 387.793 17.143 387.416C17.264 387.039 17.393 386.666 17.524 386.293C17.615 386.032 17.705 385.771 17.803 385.512C17.986 385.02 18.18 384.533 18.38 384.05C18.437 383.911 18.493 383.77 18.552 383.631C18.809 383.031 19.076 382.438 19.358 381.852C19.37 381.827 19.381 381.802 19.393 381.777C25.271 369.613 36.576 360.544 50.143 357.73C50.181 357.722 50.219 357.713 50.257 357.705C50.879 357.578 51.507 357.469 52.139 357.368C52.244 357.351 52.349 357.33 52.456 357.314C53.027 357.227 53.604 357.159 54.181 357.094C54.343 357.076 54.504 357.051 54.667 357.035C55.224 356.979 55.786 356.942 56.348 356.907C56.526 356.896 56.704 356.877 56.882 356.868C57.618 356.831 58.36 356.812 59.105 356.812C63.255 356.812 66.62 353.448 66.62 349.297V294.808C66.62 290.657 63.255 287.293 59.105 287.293C54.955 287.293 51.59 290.657 51.59 294.808V342.255C38.9 343.86 27.121 349.52 17.833 358.59C16.856 359.544 15.93 360.536 15.028 361.544V81.703C15.028 59.9621 30.854 41.845 51.589 38.267V111.972V264.749V264.75C51.589 268.9 54.954 272.265 59.104 272.265C63.254 272.265 66.619 268.9 66.619 264.75V264.749V119.487H284.859L243.315 161.031C240.38 163.967 240.38 168.724 243.315 171.659C246.25 174.593 251.008 174.593 253.942 171.659L308.315 117.286C308.317 117.284 308.318 117.282 308.32 117.281L357.505 68.096L392.008 102.601L387.96 106.649C387.957 106.652 387.953 106.655 387.95 106.658L236.422 258.188L201.918 223.684L231.786 193.816C234.721 190.88 234.721 186.123 231.786 183.188C228.851 180.254 224.093 180.254 221.159 183.188L185.976 218.37C185.788 218.558 185.612 218.757 185.447 218.961C185.392 219.029 185.343 219.102 185.291 219.173C185.185 219.314 185.081 219.456 184.984 219.604C184.929 219.69 184.879 219.778 184.827 219.867C184.744 220.007 184.664 220.149 184.591 220.294C184.543 220.388 184.5 220.483 184.456 220.581C184.389 220.728 184.327 220.878 184.27 221.028C184.25 221.081 184.224 221.131 184.205 221.184L169.564 262.659L159.582 290.938C159.45 291.314 159.355 291.696 159.284 292.081H134.292C130.142 292.081 126.777 295.445 126.777 299.596C126.777 303.747 130.142 307.111 134.292 307.111H342.406C346.557 307.111 349.921 303.747 349.921 299.596C349.921 295.445 346.557 292.081 342.406 292.081H193.093L238.923 275.903C238.961 275.889 238.997 275.87 239.035 275.856C239.213 275.79 239.388 275.716 239.561 275.637C239.63 275.605 239.699 275.575 239.766 275.542C239.946 275.452 240.123 275.353 240.297 275.247C240.353 275.213 240.411 275.182 240.466 275.147C240.647 275.031 240.823 274.904 240.996 274.77C241.039 274.737 241.084 274.708 241.126 274.674C241.335 274.506 241.54 274.325 241.734 274.131L396.378 119.488H461.633V280.034L354.137 387.531C351.202 390.467 351.202 395.224 354.137 398.159C354.32 398.342 354.511 398.514 354.708 398.675C356.086 399.798 357.769 400.36 359.451 400.36C361.133 400.36 362.817 399.798 364.194 398.675C364.391 398.515 364.582 398.342 364.765 398.159C364.768 398.156 364.765 398.159 364.768 398.156L496.972 265.951V332.253ZM222.677 265.697L201.151 273.296L186.809 258.954L194.408 237.428L222.677 265.697Z" fill="#ffbd39"/>
<path d="M507.361 240.868C504.553 239.704 501.321 240.347 499.171 242.496L476.664 265.003V111.972C476.664 107.821 473.299 104.457 469.149 104.457H411.408L432.368 83.497C432.371 83.494 432.374 83.49 432.377 83.487L452.573 63.291C456.9 58.964 459.283 53.208 459.283 47.088C459.283 40.968 456.9 35.214 452.573 30.885L429.219 7.53104C424.892 3.20404 419.136 0.821045 413.016 0.821045C406.896 0.821045 401.141 3.20404 396.813 7.53104L376.607 27.737L352.191 52.153L299.888 104.456H66.62V30.111C66.62 25.96 63.255 22.596 59.105 22.596C26.515 22.598 0 49.111 0 81.703V400.889C0 401.444 0.064 401.984 0.178 402.504C1.216 416.333 7.199 429.182 17.198 438.936C27.886 449.36 41.995 455.101 56.927 455.101H286.565L243.316 498.35C241.167 500.5 240.524 503.731 241.687 506.54C242.85 509.348 245.591 511.179 248.63 511.179H504.485C508.635 511.179 512 507.815 512 503.664V247.811C512 244.772 510.168 242.031 507.361 240.868ZM407.443 18.16C410.515 15.086 415.52 15.086 418.592 18.16L441.947 41.515C445.021 44.588 445.021 49.591 441.947 52.665L427.056 67.557L392.55 33.052L407.443 18.16ZM381.922 43.68L416.427 78.184L402.638 91.973L368.135 57.469L381.922 43.68ZM496.972 332.253H483.107C478.956 332.253 475.592 335.617 475.592 339.768C475.592 343.919 478.956 347.283 483.107 347.283H496.972V369.929H483.107C478.956 369.929 475.592 373.293 475.592 377.444C475.592 381.595 478.956 384.959 483.107 384.959H496.972V407.604H483.107C478.956 407.604 475.592 410.968 475.592 415.119C475.592 419.27 478.956 422.634 483.107 422.634H496.972V445.28H483.107C478.956 445.28 475.592 448.645 475.592 452.795C475.592 456.946 478.956 460.31 483.107 460.31H496.972V496.152H266.772L342.68 420.245C345.615 417.309 345.615 412.552 342.68 409.617C342.343 409.28 341.981 408.988 341.602 408.728C338.676 406.724 334.65 407.019 332.051 409.617L301.595 440.073H56.928C34.136 440.073 15.788 422.279 15.066 399.528C15.109 398.1 15.22 396.684 15.398 395.284C15.399 395.276 15.4 395.268 15.401 395.26C15.485 394.595 15.586 393.933 15.701 393.275C15.714 393.2 15.728 393.125 15.741 393.05C15.846 392.463 15.964 391.879 16.093 391.297C16.129 391.135 16.167 390.973 16.205 390.812C16.319 390.32 16.442 389.831 16.574 389.344C16.646 389.08 16.721 388.819 16.798 388.556C16.908 388.174 17.022 387.793 17.143 387.416C17.264 387.039 17.393 386.666 17.524 386.293C17.615 386.032 17.705 385.771 17.803 385.512C17.986 385.02 18.18 384.533 18.38 384.05C18.437 383.911 18.493 383.77 18.552 383.631C18.809 383.031 19.076 382.438 19.358 381.852C19.37 381.827 19.381 381.802 19.393 381.777C25.271 369.613 36.576 360.544 50.143 357.73C50.181 357.722 50.219 357.713 50.257 357.705C50.879 357.578 51.507 357.469 52.139 357.368C52.244 357.351 52.349 357.33 52.456 357.314C53.027 357.227 53.604 357.159 54.181 357.094C54.343 357.076 54.504 357.051 54.667 357.035C55.224 356.979 55.786 356.942 56.348 356.907C56.526 356.896 56.704 356.877 56.882 356.868C57.618 356.831 58.36 356.812 59.105 356.812C63.255 356.812 66.62 353.448 66.62 349.297V294.808C66.62 290.657 63.255 287.293 59.105 287.293C54.955 287.293 51.59 290.657 51.59 294.808V342.255C38.9 343.86 27.121 349.52 17.833 358.59C16.856 359.544 15.93 360.536 15.028 361.544V81.703C15.028 59.9621 30.854 41.845 51.589 38.267V111.972V264.749V264.75C51.589 268.9 54.954 272.265 59.104 272.265C63.254 272.265 66.619 268.9 66.619 264.75V264.749V119.487H284.859L243.315 161.031C240.38 163.967 240.38 168.724 243.315 171.659C246.25 174.593 251.008 174.593 253.942 171.659L308.315 117.286C308.317 117.284 308.318 117.282 308.32 117.281L357.505 68.096L392.008 102.601L387.96 106.649C387.957 106.652 387.953 106.655 387.95 106.658L236.422 258.188L201.918 223.684L231.786 193.816C234.721 190.88 234.721 186.123 231.786 183.188C228.851 180.254 224.093 180.254 221.159 183.188L185.976 218.37C185.788 218.558 185.612 218.757 185.447 218.961C185.392 219.029 185.343 219.102 185.291 219.173C185.185 219.314 185.081 219.456 184.984 219.604C184.929 219.69 184.879 219.778 184.827 219.867C184.744 220.007 184.664 220.149 184.591 220.294C184.543 220.388 184.5 220.483 184.456 220.581C184.389 220.728 184.327 220.878 184.27 221.028C184.25 221.081 184.224 221.131 184.205 221.184L169.564 262.659L159.582 290.938C159.45 291.314 159.355 291.696 159.284 292.081H134.292C130.142 292.081 126.777 295.445 126.777 299.596C126.777 303.747 130.142 307.111 134.292 307.111H342.406C346.557 307.111 349.921 303.747 349.921 299.596C349.921 295.445 346.557 292.081 342.406 292.081H193.093L238.923 275.903C238.961 275.889 238.997 275.87 239.035 275.856C239.213 275.79 239.388 275.716 239.561 275.637C239.63 275.605 239.699 275.575 239.766 275.542C239.946 275.452 240.123 275.353 240.297 275.247C240.353 275.213 240.411 275.182 240.466 275.147C240.647 275.031 240.823 274.904 240.996 274.77C241.039 274.737 241.084 274.708 241.126 274.674C241.335 274.506 241.54 274.325 241.734 274.131L396.378 119.488H461.633V280.034L354.137 387.531C351.202 390.467 351.202 395.224 354.137 398.159C354.32 398.342 354.511 398.514 354.708 398.675C356.086 399.798 357.769 400.36 359.451 400.36C361.133 400.36 362.817 399.798 364.194 398.675C364.391 398.515 364.582 398.342 364.765 398.159C364.768 398.156 364.765 398.159 364.768 398.156L496.972 265.951V332.253ZM222.677 265.697L201.151 273.296L186.809 258.954L194.408 237.428L222.677 265.697Z" stroke="black" stroke-width="2" mask="url(#path-2-outside-1_301_488)"/>
</g>
<defs>
<clipPath id="clip0_301_488">
<rect width="511.999" height="511.999" fill="white" transform="translate(0 0.000976562)"/>
</clipPath>
</defs>
</svg>
