<svg width="512" height="512" viewBox="0 0 512 512" fill="none" xmlns="http://www.w3.org/2000/svg">
<path d="M463.955 106.685C469.011 99.75 472.005 91.22 472.005 82C472.005 58.841 453.164 40 430.005 40C420.785 40 412.255 42.994 405.32 48.05C361.651 16.594 310.204 0 256 0C202.827 0 151.838 16.152 108.543 46.709C104.031 49.894 102.955 56.133 106.14 60.646C109.325 65.158 115.565 66.234 120.077 63.049C148.997 42.637 181.65 29.206 216.095 23.355C212.086 28.449 208.058 34.58 204.083 41.964C191.951 64.503 181.939 95.542 174.96 132.122C156.6 133.442 141.475 146.606 137.209 164H38.607C44.419 150.281 51.551 137.074 59.969 124.547C63.049 119.963 61.829 113.75 57.245 110.67C52.661 107.589 46.448 108.809 43.368 113.393C14.996 155.617 0 204.93 0 256C0 310.185 16.595 361.645 48.047 405.319C42.993 412.253 40 420.782 40 430C40 453.159 58.841 472 82 472C91.219 472 99.748 469.007 106.682 463.952C150.354 495.406 201.81 512 256 512C324.38 512 388.667 485.371 437.02 437.019C485.371 388.668 512 324.38 512 256C512 201.802 495.408 150.355 463.955 106.685ZM480.754 328H374.117C370.692 314.035 360.268 302.799 346.789 298.225C347.578 284.333 348 270.178 348 256C348 231.274 346.802 207.08 344.493 184.001H480.878C488.225 206.996 492 231.185 492 256C492 281.1 488.046 305.291 480.754 328ZM256 492C239.245 492 221.116 467.621 207.504 426.786C199.875 403.897 193.973 377.159 189.99 348.001H292.541C295.743 361.055 305.057 371.731 317.27 376.804C302.057 456.289 275.825 492 256 492ZM82 388C75.313 388 68.99 389.579 63.373 392.371C53.429 378.372 45.134 363.518 38.55 348H169.826C173.982 379.467 180.289 408.387 188.53 433.11C196.454 456.884 205.682 475.481 215.961 488.641C181.322 482.766 148.637 469.234 119.629 448.628C122.421 443.01 124 436.687 124 430C124 406.841 105.159 388 82 388ZM184 256C184 242.355 184.4 228.74 185.15 215.378C201.625 212.537 214.841 200.075 218.783 184H324.397C326.768 206.992 328 231.199 328 256C328 269.6 327.602 283.174 326.856 296.5C310.064 299.109 296.538 311.703 292.541 328H187.602C185.233 305.009 184 280.802 184 256ZM333.329 360C321.198 360 311.329 350.131 311.329 338C311.329 325.869 321.198 316 333.329 316C345.46 316 355.329 325.869 355.329 338C355.329 350.131 345.46 360 333.329 360ZM323.47 78.89C315.545 55.115 306.317 36.517 296.037 23.357C330.682 29.232 363.367 42.762 392.376 63.372C389.584 68.99 388.005 75.313 388.005 82C388.005 105.159 406.846 124 430.005 124C436.692 124 443.014 122.421 448.632 119.63C458.577 133.628 466.869 148.484 473.452 164.001H342.174C338.018 132.533 331.71 103.613 323.47 78.89ZM452.005 82C452.005 94.131 442.136 104 430.005 104C417.874 104 408.005 94.131 408.005 82C408.005 69.869 417.874 60 430.005 60C442.136 60 452.005 69.869 452.005 82ZM256 20C272.755 20 290.884 44.379 304.496 85.214C312.125 108.103 318.027 134.842 322.01 164H218.784C215.637 151.169 206.584 140.638 194.679 135.464C209.879 55.796 236.136 20 256 20ZM177.996 152.001C190.127 152.001 199.996 161.87 199.996 174.001C199.996 186.132 190.127 196.001 177.996 196.001C165.865 196.001 155.996 186.132 155.996 174.001C155.996 161.87 165.865 152.001 177.996 152.001ZM137.209 184.001C140.69 198.194 151.398 209.574 165.198 214C164.418 227.818 164 241.896 164 256C164 280.727 165.198 304.921 167.507 328H31.127C23.778 305.001 20 280.811 20 256C20 231.316 23.805 207.082 31.187 184.001H137.209ZM60 430C60 417.869 69.869 408 82 408C94.131 408 104 417.869 104 430C104 442.131 94.131 452 82 452C69.869 452 60 442.131 60 430ZM295.937 488.604C299.911 483.549 303.904 477.476 307.845 470.172C320.014 447.615 330.058 416.504 337.052 379.826C355.103 378.232 369.905 365.177 374.117 348H473.326C442.411 420.752 375.989 474.901 295.937 488.604Z" fill="#ffbd39"/>
<path d="M80.0601 94.0601C82.7011 94.0601 85.2701 93.0001 87.1401 91.1301C89.0001 89.2701 90.0601 86.6901 90.0601 84.0601C90.0601 81.4301 89.0001 78.8601 87.1401 76.9901C85.2701 75.1301 82.7011 74.0601 80.0601 74.0601C77.4301 74.0601 74.8501 75.1301 72.9911 76.9901C71.1311 78.8601 70.0601 81.4301 70.0601 84.0601C70.0601 86.6901 71.1301 89.2701 72.9911 91.1301C74.8501 93.0001 77.4301 94.0601 80.0601 94.0601Z" fill="#ffbd39"/>
</svg>
