<svg width="512" height="512" viewBox="0 0 512 512" fill="none" xmlns="http://www.w3.org/2000/svg">
<g clip-path="url(#clip0_301_459)">
<path d="M359.27 25.73C351.77 18.23 341.6 14.01 331 14H139C128.39 14.01 118.23 18.23 110.73 25.73C103.23 33.23 99.01 43.4 99 54V470C99.01 480.61 103.23 490.77 110.73 498.27C118.23 505.77 128.39 509.99 139 510H331C341.6 509.99 351.77 505.77 359.27 498.27C366.77 490.77 370.99 480.61 371 470V237.33C365.57 242.62 360.16 247.68 355 252.41V470C354.99 476.36 352.46 482.46 347.96 486.96C343.46 491.46 337.36 493.99 331 494H139C132.63 493.99 126.53 491.46 122.03 486.96C117.53 482.46 115 476.36 115 470V54C115 47.64 117.53 41.54 122.03 37.04C126.53 32.54 132.63 30.01 139 30H164.44L171.15 63.57C171.52 65.38 172.5 67.01 173.92 68.19C175.36 69.36 177.15 70 179 70H291C292.85 70 294.64 69.36 296.07 68.19C297.5 67.01 298.48 65.38 298.84 63.57L305.56 30H331C337.36 30.01 343.46 32.54 347.96 37.04C352.46 41.54 354.99 47.64 355 54V179.35C360.3 174.09 365.67 169.05 371 164.44V54C370.99 43.4 366.77 33.23 359.27 25.73ZM284.44 54H185.56L180.76 30H289.24L284.44 54Z" fill="#ffbd39"/>
<path d="M187 462H139C136.88 462 134.84 462.84 133.34 464.34C131.84 465.84 131 467.88 131 470C131 472.12 131.84 474.16 133.34 475.66C134.84 477.16 136.88 478 139 478H187C189.12 478 191.16 477.16 192.66 475.66C194.16 474.16 195 472.12 195 470C195 467.88 194.16 465.84 192.66 464.34C191.16 462.84 189.12 462 187 462Z" fill="#ffbd39"/>
<path d="M219 462H211C208.88 462 206.84 462.84 205.34 464.34C203.84 465.84 203 467.88 203 470C203 472.12 203.84 474.16 205.34 475.66C206.84 477.16 208.88 478 211 478H219C221.12 478 223.16 477.16 224.66 475.66C226.16 474.16 227 472.12 227 470C227 467.88 226.16 465.84 224.66 464.34C223.16 462.84 221.12 462 219 462Z" fill="#ffbd39"/>
<path d="M412.58 122.87C399.37 124.25 388.84 127.71 371 142.02C369.12 143.52 367.16 145.15 365.11 146.91C361.79 149.76 358.41 152.79 355 155.96C318.43 190.03 277.66 241.51 250.59 279.45C228.98 276.08 206.2 285.33 192.71 302.19C167.96 333.13 188.68 360.75 165.33 385.37C161.26 389.66 162.72 396.7 168.15 399.03C206.35 415.38 255.19 405.19 278.1 381.03C292.1 366.27 299.71 344.48 295.89 323.96C313.73 310.27 334.55 293.35 355 275.28C360.38 270.53 365.73 265.71 371 260.84C391.66 241.73 411.02 222.01 425.42 203.95C443.16 181.7 445.93 169.47 446.71 154.9C447.76 135.28 432.53 120.77 412.58 122.87V122.87ZM265.77 369.34C250.27 385.68 215.98 395.2 185.47 387.06C202.53 359.85 187.87 335.45 205.98 312.8C220.85 294.22 250.75 289.02 268.12 306.39C288.42 326.69 278.96 355.42 265.77 369.34V369.34ZM289.84 307.16C284.83 298.17 277.08 290.11 267.51 285.04C271.67 279.28 278.2 270.39 286.36 259.74L314.24 287.62C303.97 296.06 295.4 302.83 289.84 307.16ZM429.74 153.99C428.55 176.34 399.34 209.8 371 237.33C365.57 242.62 360.16 247.68 355 252.41C344.09 262.39 334.23 270.86 327.34 276.69L296.88 246.22C308.8 231.14 331.23 202.95 355 179.35C360.3 174.09 365.67 169.05 371 164.44C386.61 150.94 401.92 141.07 414.36 139.76C423.91 138.76 430.24 144.78 429.74 153.99Z" fill="#ffbd39"/>
</g>
<defs>
<clipPath id="clip0_301_459">
<rect width="347.76" height="496" fill="white" transform="translate(99 14)"/>
</clipPath>
</defs>
</svg>
