<svg width="512" height="512" viewBox="0 0 512 512" fill="none" xmlns="http://www.w3.org/2000/svg">
<g clip-path="url(#clip0_301_474)">
<path d="M260.232 365.222C257.277 364.344 254.077 365.139 251.875 367.3M260.232 365.222L332.285 384.543M260.232 365.222L260.362 364.739L260.368 364.741M260.232 365.222L260.374 364.743M251.875 367.3L353.043 372.565C351.048 379.953 344.355 385.089 336.702 385.102C335.207 385.114 333.726 384.924 332.285 384.543M251.875 367.3C249.677 369.46 248.821 372.643 249.644 375.615M251.875 367.3L327.894 400.921L255.841 381.592M332.285 384.543L332.415 384.06L332.413 384.06M332.285 384.543L332.413 384.06M332.413 384.06L260.374 364.743M332.413 384.06C333.811 384.429 335.249 384.614 336.697 384.602L336.701 384.602C344.128 384.59 350.624 379.605 352.56 372.434L352.562 372.426C352.93 371.149 353.109 369.822 353.101 368.491L353.101 368.456L353.106 368.422C353.151 368.079 353.216 367.743 353.3 367.41M260.374 364.743L226.723 321.628L340.898 352.235M260.374 364.743L260.368 364.741M353.3 367.41C353.32 367.462 353.341 367.515 353.362 367.567L353.825 367.378L353.343 367.247C353.328 367.301 353.313 367.355 353.3 367.41ZM353.3 367.41C353.182 367.103 353.084 366.791 353.002 366.479L352.993 366.443L352.989 366.407C352.241 359.653 347.448 354.04 340.898 352.235M340.898 352.235L340.902 352.236L341.031 351.753L340.898 352.235ZM260.368 364.741C257.24 363.815 253.855 364.657 251.525 366.943L251.525 366.943C249.198 369.231 248.29 372.601 249.163 375.749L249.644 375.615M260.368 364.741L482.379 376.515C489.57 374.574 494.558 368.051 494.546 360.603V360.599C494.558 359.162 494.374 357.729 494.004 356.34L494.004 356.339C491.888 348.365 484.192 343.188 476.005 344.239C475.277 344.359 474.5 344.544 473.77 344.729C473.768 344.729 473.767 344.729 473.766 344.73L370.765 372.35C370.585 374.015 370.273 375.665 369.825 377.283M249.644 375.615L249.163 375.749C250.034 378.89 252.543 381.317 255.719 382.077L255.711 382.075L255.841 381.592M249.644 375.615C250.468 378.583 252.84 380.876 255.841 381.592M255.841 381.592L255.724 382.078L327.764 401.404L327.766 401.405C330.685 402.173 333.696 402.56 336.719 402.556C352.184 402.547 365.738 392.202 369.825 377.283M369.825 377.283C369.824 377.283 369.824 377.284 369.824 377.284L369.342 377.151L369.825 377.283ZM511.341 351.658L511.34 351.654C507.774 338.659 496.955 328.954 483.679 326.793V133.164H500.133C505.091 133.164 509.11 129.144 509.11 124.187V39.4185C509.11 34.4567 505.09 30.4417 500.133 30.4417H127.152C122.195 30.4417 118.176 34.4567 118.176 39.4185V124.187C118.176 129.144 122.195 133.164 127.152 133.164H143.606V301.7H135.63C114.8 301.651 94.3895 307.535 76.7915 318.656V276.77C76.7915 271.808 72.7719 267.793 67.8147 267.793H8.47683C3.51955 267.793 -0.5 271.808 -0.5 276.77V471.737C-0.5 476.694 3.51939 480.714 8.47683 480.714H67.8147C72.7721 480.714 76.7915 476.694 76.7915 471.737V429.854C94.3933 440.967 114.8 446.852 135.63 446.806H274.818H274.819C284.506 446.79 294.148 445.518 303.507 443.023L303.507 443.023L487.038 393.859L487.04 393.858C505.364 388.865 516.221 370.016 511.341 351.658ZM345.555 334.893L345.552 334.892L231.334 304.259L231.332 304.258C224.858 302.554 218.193 301.692 211.498 301.7H161.56V133.164H465.726V328.294L368.134 354.465C363.963 344.864 355.666 337.664 345.555 334.893ZM482.379 376.515L298.882 425.678C298.882 425.678 298.882 425.679 298.882 425.679C291.03 427.774 282.945 428.84 274.817 428.853H135.629H135.628C115.555 428.898 96.0128 422.385 79.9823 410.303L79.9813 410.302L76.7915 407.911V340.596L79.9816 338.2L79.9823 338.2C96.0129 326.117 115.555 319.6 135.628 319.654H135.629H211.499C216.633 319.65 221.751 320.315 226.721 321.628L482.379 376.515ZM136.129 48.3953H491.156V115.21H136.129V48.3953ZM58.8378 462.76H17.4537V285.747H58.8378V462.76Z" fill="#ffbd39" stroke="black"/>
<path d="M271.259 166.571H356.027C360.708 166.571 364.504 162.776 364.504 158.094C364.504 153.409 360.708 149.617 356.027 149.617H271.259C266.577 149.617 262.782 153.409 262.782 158.094C262.782 162.776 266.577 166.571 271.259 166.571Z" fill="#ffbd39"/>
</g>
<defs>
<clipPath id="clip0_301_474">
<rect width="512" height="512" fill="white"/>
</clipPath>
</defs>
</svg>
