<svg width="512" height="512" viewBox="0 0 512 512" fill="none" xmlns="http://www.w3.org/2000/svg">
<path d="M376 48C367.516 48.0095 359.382 51.384 353.383 57.3831C347.384 63.3822 344.01 71.516 344 80V85.327C309.836 121.488 263.611 146.249 230.378 160.793C189.563 178.654 152.005 188 136 188H40C30.4555 188.011 21.3049 191.807 14.5558 198.556C7.80683 205.305 4.01059 214.455 4 224V288C4.01059 297.545 7.80683 306.695 14.5558 313.444C21.3049 320.193 30.4555 323.989 40 324H60V408C60 411.183 61.2643 414.235 63.5147 416.485C65.7652 418.736 68.8174 420 72 420H112C114.676 420 117.276 419.106 119.385 417.459C121.494 415.812 122.993 413.507 123.642 410.911L145.193 324.711C164.027 327.191 196.048 336.188 230.378 351.211C263.611 365.755 309.836 390.516 344 426.677V432C344 440.487 347.371 448.626 353.373 454.627C359.374 460.629 367.513 464 376 464C384.487 464 392.626 460.629 398.627 454.627C404.629 448.626 408 440.487 408 432V80C407.99 71.516 404.616 63.3822 398.617 57.3831C392.618 51.384 384.484 48.0095 376 48ZM124 300H84V212H124V300ZM28 288V224C28.0034 220.818 29.2688 217.768 31.5185 215.519C33.7682 213.269 36.8185 212.003 40 212H60V300H40C36.8185 299.997 33.7682 298.731 31.5185 296.481C29.2688 294.232 28.0034 291.182 28 288ZM102.631 396H84V324H120.631L102.631 396ZM148 300.928V211.072C190.179 205.455 280.935 174.212 344 118.613V393.387C280.935 337.788 190.179 306.545 148 300.928ZM384 432C384 434.122 383.157 436.157 381.657 437.657C380.157 439.157 378.122 440 376 440C373.878 440 371.843 439.157 370.343 437.657C368.843 436.157 368 434.122 368 432V80C368 77.8783 368.843 75.8434 370.343 74.3431C371.843 72.8429 373.878 72 376 72C378.122 72 380.157 72.8429 381.657 74.3431C383.157 75.8434 384 77.8783 384 80V432Z" fill="#ffbd39"/>
<path d="M496 244H456C452.817 244 449.765 245.264 447.515 247.515C445.264 249.765 444 252.817 444 256C444 259.183 445.264 262.235 447.515 264.485C449.765 266.736 452.817 268 456 268H496C499.183 268 502.235 266.736 504.485 264.485C506.736 262.235 508 259.183 508 256C508 252.817 506.736 249.765 504.485 247.515C502.235 245.264 499.183 244 496 244Z" fill="#ffbd39"/>
<path d="M436.256 181.336C438.054 181.336 439.828 180.93 441.447 180.148L477.5 162.815C480.368 161.436 482.571 158.974 483.625 155.97C484.678 152.967 484.494 149.668 483.115 146.8C481.736 143.932 479.274 141.729 476.271 140.676C473.267 139.623 469.968 139.806 467.1 141.185L431.051 158.519C428.599 159.697 426.619 161.673 425.438 164.124C424.256 166.575 423.942 169.354 424.548 172.007C425.153 174.659 426.642 177.027 428.77 178.722C430.898 180.417 433.539 181.339 436.26 181.336H436.256Z" fill="#ffbd39"/>
<path d="M477.5 349.185L441.451 331.852C438.586 330.498 435.302 330.333 432.316 331.391C429.329 332.449 426.883 334.646 425.509 337.502C424.136 340.357 423.948 343.64 424.987 346.633C426.025 349.627 428.205 352.089 431.051 353.481L467.1 370.815C469.968 372.194 473.267 372.377 476.27 371.324C479.274 370.271 481.736 368.068 483.115 365.2C484.494 362.332 484.677 359.033 483.624 356.03C482.571 353.026 480.368 350.564 477.5 349.185Z" fill="#ffbd39"/>
</svg>
